<?xml version="1.0" encoding="utf-8" standalone="no"?>
<!DOCTYPE svg PUBLIC "-//W3C//DTD SVG 1.1//EN"
  "http://www.w3.org/Graphics/SVG/1.1/DTD/svg11.dtd">
<svg xmlns:xlink="http://www.w3.org/1999/xlink" width="851.99181pt" height="563.640625pt" viewBox="0 0 851.99181 563.640625" xmlns="http://www.w3.org/2000/svg" version="1.1">
 <metadata>
  <rdf:RDF xmlns:dc="http://purl.org/dc/elements/1.1/" xmlns:cc="http://creativecommons.org/ns#" xmlns:rdf="http://www.w3.org/1999/02/22-rdf-syntax-ns#">
   <cc:Work>
    <dc:type rdf:resource="http://purl.org/dc/dcmitype/StillImage"/>
    <dc:date>2025-06-05T08:24:01.608805</dc:date>
    <dc:format>image/svg+xml</dc:format>
    <dc:creator>
     <cc:Agent>
      <dc:title>Matplotlib v3.10.0, https://matplotlib.org/</dc:title>
     </cc:Agent>
    </dc:creator>
   </cc:Work>
  </rdf:RDF>
 </metadata>
 <defs>
  <style type="text/css">*{stroke-linejoin: round; stroke-linecap: butt}</style>
 </defs>
 <g id="figure_1">
  <g id="patch_1">
   <path d="M 0 563.640625 
L 851.99181 563.640625 
L 851.99181 0 
L 0 0 
z
" style="fill: #ffffff"/>
  </g>
  <g id="axes_1">
   <g id="patch_2">
    <path d="M 50.833125 520.2775 
L 666.461125 520.2775 
L 666.461125 25.3575 
L 50.833125 25.3575 
z
" style="fill: #ffffff"/>
   </g>
   <g id="FillBetweenPolyCollection_1">
    <defs>
     <path id="md48dc9d625" d="M 78.816216 -120.647264 
L 78.816216 -120.647264 
L 134.782398 -476.392208 
L 190.74858 -476.392208 
L 246.714761 -476.392208 
L 302.680943 -476.392208 
L 358.647125 -476.392208 
L 414.613307 -476.392208 
L 470.579489 -476.392208 
L 526.54567 -476.392208 
L 582.511852 -476.392208 
L 638.478034 -476.392208 
L 638.478034 -476.392208 
L 638.478034 -476.392208 
L 582.511852 -476.392208 
L 526.54567 -476.392208 
L 470.579489 -476.392208 
L 414.613307 -476.392208 
L 358.647125 -476.392208 
L 302.680943 -476.392208 
L 246.714761 -476.392208 
L 190.74858 -476.392208 
L 134.782398 -476.392208 
L 78.816216 -120.647264 
z
" style="stroke: #aed6f1; stroke-opacity: 0.3"/>
    </defs>
    <g clip-path="url(#p2ad2269d00)">
     <use xlink:href="#md48dc9d625" x="0" y="563.640625" style="fill: #aed6f1; fill-opacity: 0.3; stroke: #aed6f1; stroke-opacity: 0.3"/>
    </g>
   </g>
   <g id="FillBetweenPolyCollection_2">
    <defs>
     <path id="m1d2ca5a36b" d="M 78.816216 -120.647264 
L 78.816216 -120.647264 
L 134.782398 -273.199246 
L 190.74858 -206.850523 
L 246.714761 -179.896355 
L 302.680943 -171.602765 
L 358.647125 -206.850523 
L 414.613307 -165.382572 
L 470.579489 -202.703728 
L 526.54567 -167.45597 
L 582.511852 -208.923921 
L 638.478034 -225.511102 
L 638.478034 -515.786761 
L 638.478034 -515.786761 
L 582.511852 -509.566569 
L 526.54567 -480.539003 
L 470.579489 -474.31881 
L 414.613307 -511.639966 
L 358.647125 -474.31881 
L 302.680943 -466.02522 
L 246.714761 -422.483871 
L 190.74858 -347.841558 
L 134.782398 -304.300209 
L 78.816216 -120.647264 
z
" style="stroke: #40a7eb; stroke-opacity: 0.3"/>
    </defs>
    <g clip-path="url(#p2ad2269d00)">
     <use xlink:href="#m1d2ca5a36b" x="0" y="563.640625" style="fill: #40a7eb; fill-opacity: 0.3; stroke: #40a7eb; stroke-opacity: 0.3"/>
    </g>
   </g>
   <g id="FillBetweenPolyCollection_3">
    <defs>
     <path id="m3223f20c5e" d="M 78.816216 -120.647264 
L 78.816216 -120.647264 
L 134.782398 -139.879782 
L 190.74858 -125.780678 
L 246.714761 -103.387985 
L 302.680943 -103.180645 
L 358.647125 -101.521927 
L 414.613307 -102.973305 
L 470.579489 -105.254042 
L 526.54567 -103.387985 
L 582.511852 -102.143946 
L 638.478034 -105.461382 
L 638.478034 -123.499941 
L 638.478034 -123.499941 
L 582.511852 -131.586192 
L 526.54567 -124.12196 
L 470.579489 -123.499941 
L 414.613307 -104.217344 
L 358.647125 -103.180645 
L 302.680943 -111.888915 
L 246.714761 -103.387985 
L 190.74858 -126.610037 
L 134.782398 -141.953179 
L 78.816216 -120.647264 
z
" style="stroke: #0053d7; stroke-opacity: 0.3"/>
    </defs>
    <g clip-path="url(#p2ad2269d00)">
     <use xlink:href="#m3223f20c5e" x="0" y="563.640625" style="fill: #0053d7; fill-opacity: 0.3; stroke: #0053d7; stroke-opacity: 0.3"/>
    </g>
   </g>
   <g id="FillBetweenPolyCollection_4">
    <defs>
     <path id="m2243ac0bd0" d="M 78.816216 -120.647264 
L 78.816216 -120.647264 
L 134.782398 -70.172156 
L 190.74858 -66.191232 
L 246.714761 -65.859489 
L 302.680943 -65.942425 
L 358.647125 -67.95362 
L 414.613307 -66.896187 
L 470.579489 -68.015822 
L 526.54567 -66.377838 
L 582.511852 -67.331601 
L 638.478034 -68.015822 
L 638.478034 -68.389034 
L 638.478034 -68.389034 
L 582.511852 -68.637841 
L 526.54567 -66.75105 
L 470.579489 -68.243896 
L 414.613307 -67.95362 
L 358.647125 -70.296559 
L 302.680943 -68.119492 
L 246.714761 -67.891418 
L 190.74858 -70.213624 
L 134.782398 -70.296559 
L 78.816216 -120.647264 
z
" style="stroke: #5604ba; stroke-opacity: 0.3"/>
    </defs>
    <g clip-path="url(#p2ad2269d00)">
     <use xlink:href="#m2243ac0bd0" x="0" y="563.640625" style="fill: #5604ba; fill-opacity: 0.3; stroke: #5604ba; stroke-opacity: 0.3"/>
    </g>
   </g>
   <g id="matplotlib.axis_1">
    <g id="xtick_1">
     <g id="line2d_1">
      <path d="M 78.816216 520.2775 
L 78.816216 25.3575 
" clip-path="url(#p2ad2269d00)" style="fill: none; stroke: #b0b0b0; stroke-opacity: 0.3; stroke-width: 0.8; stroke-linecap: square"/>
     </g>
     <g id="line2d_2">
      <defs>
       <path id="ma5dbffa38d" d="M 0 0 
L 0 3.5 
" style="stroke: #000000; stroke-width: 0.8"/>
      </defs>
      <g>
       <use xlink:href="#ma5dbffa38d" x="78.816216" y="520.2775" style="stroke: #000000; stroke-width: 0.8"/>
      </g>
     </g>
     <g id="text_1">
      <!-- 0 -->
      <g transform="translate(74.998716 536.395625) scale(0.12 -0.12)">
       <defs>
        <path id="DejaVuSans-30" d="M 2034 4250 
Q 1547 4250 1301 3770 
Q 1056 3291 1056 2328 
Q 1056 1369 1301 889 
Q 1547 409 2034 409 
Q 2525 409 2770 889 
Q 3016 1369 3016 2328 
Q 3016 3291 2770 3770 
Q 2525 4250 2034 4250 
z
M 2034 4750 
Q 2819 4750 3233 4129 
Q 3647 3509 3647 2328 
Q 3647 1150 3233 529 
Q 2819 -91 2034 -91 
Q 1250 -91 836 529 
Q 422 1150 422 2328 
Q 422 3509 836 4129 
Q 1250 4750 2034 4750 
z
" transform="scale(0.015625)"/>
       </defs>
       <use xlink:href="#DejaVuSans-30"/>
      </g>
     </g>
    </g>
    <g id="xtick_2">
     <g id="line2d_3">
      <path d="M 190.74858 520.2775 
L 190.74858 25.3575 
" clip-path="url(#p2ad2269d00)" style="fill: none; stroke: #b0b0b0; stroke-opacity: 0.3; stroke-width: 0.8; stroke-linecap: square"/>
     </g>
     <g id="line2d_4">
      <g>
       <use xlink:href="#ma5dbffa38d" x="190.74858" y="520.2775" style="stroke: #000000; stroke-width: 0.8"/>
      </g>
     </g>
     <g id="text_2">
      <!-- 2 -->
      <g transform="translate(186.93108 536.395625) scale(0.12 -0.12)">
       <defs>
        <path id="DejaVuSans-32" d="M 1228 531 
L 3431 531 
L 3431 0 
L 469 0 
L 469 531 
Q 828 903 1448 1529 
Q 2069 2156 2228 2338 
Q 2531 2678 2651 2914 
Q 2772 3150 2772 3378 
Q 2772 3750 2511 3984 
Q 2250 4219 1831 4219 
Q 1534 4219 1204 4116 
Q 875 4013 500 3803 
L 500 4441 
Q 881 4594 1212 4672 
Q 1544 4750 1819 4750 
Q 2544 4750 2975 4387 
Q 3406 4025 3406 3419 
Q 3406 3131 3298 2873 
Q 3191 2616 2906 2266 
Q 2828 2175 2409 1742 
Q 1991 1309 1228 531 
z
" transform="scale(0.015625)"/>
       </defs>
       <use xlink:href="#DejaVuSans-32"/>
      </g>
     </g>
    </g>
    <g id="xtick_3">
     <g id="line2d_5">
      <path d="M 302.680943 520.2775 
L 302.680943 25.3575 
" clip-path="url(#p2ad2269d00)" style="fill: none; stroke: #b0b0b0; stroke-opacity: 0.3; stroke-width: 0.8; stroke-linecap: square"/>
     </g>
     <g id="line2d_6">
      <g>
       <use xlink:href="#ma5dbffa38d" x="302.680943" y="520.2775" style="stroke: #000000; stroke-width: 0.8"/>
      </g>
     </g>
     <g id="text_3">
      <!-- 4 -->
      <g transform="translate(298.863443 536.395625) scale(0.12 -0.12)">
       <defs>
        <path id="DejaVuSans-34" d="M 2419 4116 
L 825 1625 
L 2419 1625 
L 2419 4116 
z
M 2253 4666 
L 3047 4666 
L 3047 1625 
L 3713 1625 
L 3713 1100 
L 3047 1100 
L 3047 0 
L 2419 0 
L 2419 1100 
L 313 1100 
L 313 1709 
L 2253 4666 
z
" transform="scale(0.015625)"/>
       </defs>
       <use xlink:href="#DejaVuSans-34"/>
      </g>
     </g>
    </g>
    <g id="xtick_4">
     <g id="line2d_7">
      <path d="M 414.613307 520.2775 
L 414.613307 25.3575 
" clip-path="url(#p2ad2269d00)" style="fill: none; stroke: #b0b0b0; stroke-opacity: 0.3; stroke-width: 0.8; stroke-linecap: square"/>
     </g>
     <g id="line2d_8">
      <g>
       <use xlink:href="#ma5dbffa38d" x="414.613307" y="520.2775" style="stroke: #000000; stroke-width: 0.8"/>
      </g>
     </g>
     <g id="text_4">
      <!-- 6 -->
      <g transform="translate(410.795807 536.395625) scale(0.12 -0.12)">
       <defs>
        <path id="DejaVuSans-36" d="M 2113 2584 
Q 1688 2584 1439 2293 
Q 1191 2003 1191 1497 
Q 1191 994 1439 701 
Q 1688 409 2113 409 
Q 2538 409 2786 701 
Q 3034 994 3034 1497 
Q 3034 2003 2786 2293 
Q 2538 2584 2113 2584 
z
M 3366 4563 
L 3366 3988 
Q 3128 4100 2886 4159 
Q 2644 4219 2406 4219 
Q 1781 4219 1451 3797 
Q 1122 3375 1075 2522 
Q 1259 2794 1537 2939 
Q 1816 3084 2150 3084 
Q 2853 3084 3261 2657 
Q 3669 2231 3669 1497 
Q 3669 778 3244 343 
Q 2819 -91 2113 -91 
Q 1303 -91 875 529 
Q 447 1150 447 2328 
Q 447 3434 972 4092 
Q 1497 4750 2381 4750 
Q 2619 4750 2861 4703 
Q 3103 4656 3366 4563 
z
" transform="scale(0.015625)"/>
       </defs>
       <use xlink:href="#DejaVuSans-36"/>
      </g>
     </g>
    </g>
    <g id="xtick_5">
     <g id="line2d_9">
      <path d="M 526.54567 520.2775 
L 526.54567 25.3575 
" clip-path="url(#p2ad2269d00)" style="fill: none; stroke: #b0b0b0; stroke-opacity: 0.3; stroke-width: 0.8; stroke-linecap: square"/>
     </g>
     <g id="line2d_10">
      <g>
       <use xlink:href="#ma5dbffa38d" x="526.54567" y="520.2775" style="stroke: #000000; stroke-width: 0.8"/>
      </g>
     </g>
     <g id="text_5">
      <!-- 8 -->
      <g transform="translate(522.72817 536.395625) scale(0.12 -0.12)">
       <defs>
        <path id="DejaVuSans-38" d="M 2034 2216 
Q 1584 2216 1326 1975 
Q 1069 1734 1069 1313 
Q 1069 891 1326 650 
Q 1584 409 2034 409 
Q 2484 409 2743 651 
Q 3003 894 3003 1313 
Q 3003 1734 2745 1975 
Q 2488 2216 2034 2216 
z
M 1403 2484 
Q 997 2584 770 2862 
Q 544 3141 544 3541 
Q 544 4100 942 4425 
Q 1341 4750 2034 4750 
Q 2731 4750 3128 4425 
Q 3525 4100 3525 3541 
Q 3525 3141 3298 2862 
Q 3072 2584 2669 2484 
Q 3125 2378 3379 2068 
Q 3634 1759 3634 1313 
Q 3634 634 3220 271 
Q 2806 -91 2034 -91 
Q 1263 -91 848 271 
Q 434 634 434 1313 
Q 434 1759 690 2068 
Q 947 2378 1403 2484 
z
M 1172 3481 
Q 1172 3119 1398 2916 
Q 1625 2713 2034 2713 
Q 2441 2713 2670 2916 
Q 2900 3119 2900 3481 
Q 2900 3844 2670 4047 
Q 2441 4250 2034 4250 
Q 1625 4250 1398 4047 
Q 1172 3844 1172 3481 
z
" transform="scale(0.015625)"/>
       </defs>
       <use xlink:href="#DejaVuSans-38"/>
      </g>
     </g>
    </g>
    <g id="xtick_6">
     <g id="line2d_11">
      <path d="M 638.478034 520.2775 
L 638.478034 25.3575 
" clip-path="url(#p2ad2269d00)" style="fill: none; stroke: #b0b0b0; stroke-opacity: 0.3; stroke-width: 0.8; stroke-linecap: square"/>
     </g>
     <g id="line2d_12">
      <g>
       <use xlink:href="#ma5dbffa38d" x="638.478034" y="520.2775" style="stroke: #000000; stroke-width: 0.8"/>
      </g>
     </g>
     <g id="text_6">
      <!-- 10 -->
      <g transform="translate(630.843034 536.395625) scale(0.12 -0.12)">
       <defs>
        <path id="DejaVuSans-31" d="M 794 531 
L 1825 531 
L 1825 4091 
L 703 3866 
L 703 4441 
L 1819 4666 
L 2450 4666 
L 2450 531 
L 3481 531 
L 3481 0 
L 794 0 
L 794 531 
z
" transform="scale(0.015625)"/>
       </defs>
       <use xlink:href="#DejaVuSans-31"/>
       <use xlink:href="#DejaVuSans-30" transform="translate(63.623047 0)"/>
      </g>
     </g>
    </g>
    <g id="text_7">
     <!-- Iteration (batch index) -->
     <g transform="translate(280.127906 553.529063) scale(0.14 -0.14)">
      <defs>
       <path id="DejaVuSans-49" d="M 628 4666 
L 1259 4666 
L 1259 0 
L 628 0 
L 628 4666 
z
" transform="scale(0.015625)"/>
       <path id="DejaVuSans-74" d="M 1172 4494 
L 1172 3500 
L 2356 3500 
L 2356 3053 
L 1172 3053 
L 1172 1153 
Q 1172 725 1289 603 
Q 1406 481 1766 481 
L 2356 481 
L 2356 0 
L 1766 0 
Q 1100 0 847 248 
Q 594 497 594 1153 
L 594 3053 
L 172 3053 
L 172 3500 
L 594 3500 
L 594 4494 
L 1172 4494 
z
" transform="scale(0.015625)"/>
       <path id="DejaVuSans-65" d="M 3597 1894 
L 3597 1613 
L 953 1613 
Q 991 1019 1311 708 
Q 1631 397 2203 397 
Q 2534 397 2845 478 
Q 3156 559 3463 722 
L 3463 178 
Q 3153 47 2828 -22 
Q 2503 -91 2169 -91 
Q 1331 -91 842 396 
Q 353 884 353 1716 
Q 353 2575 817 3079 
Q 1281 3584 2069 3584 
Q 2775 3584 3186 3129 
Q 3597 2675 3597 1894 
z
M 3022 2063 
Q 3016 2534 2758 2815 
Q 2500 3097 2075 3097 
Q 1594 3097 1305 2825 
Q 1016 2553 972 2059 
L 3022 2063 
z
" transform="scale(0.015625)"/>
       <path id="DejaVuSans-72" d="M 2631 2963 
Q 2534 3019 2420 3045 
Q 2306 3072 2169 3072 
Q 1681 3072 1420 2755 
Q 1159 2438 1159 1844 
L 1159 0 
L 581 0 
L 581 3500 
L 1159 3500 
L 1159 2956 
Q 1341 3275 1631 3429 
Q 1922 3584 2338 3584 
Q 2397 3584 2469 3576 
Q 2541 3569 2628 3553 
L 2631 2963 
z
" transform="scale(0.015625)"/>
       <path id="DejaVuSans-61" d="M 2194 1759 
Q 1497 1759 1228 1600 
Q 959 1441 959 1056 
Q 959 750 1161 570 
Q 1363 391 1709 391 
Q 2188 391 2477 730 
Q 2766 1069 2766 1631 
L 2766 1759 
L 2194 1759 
z
M 3341 1997 
L 3341 0 
L 2766 0 
L 2766 531 
Q 2569 213 2275 61 
Q 1981 -91 1556 -91 
Q 1019 -91 701 211 
Q 384 513 384 1019 
Q 384 1609 779 1909 
Q 1175 2209 1959 2209 
L 2766 2209 
L 2766 2266 
Q 2766 2663 2505 2880 
Q 2244 3097 1772 3097 
Q 1472 3097 1187 3025 
Q 903 2953 641 2809 
L 641 3341 
Q 956 3463 1253 3523 
Q 1550 3584 1831 3584 
Q 2591 3584 2966 3190 
Q 3341 2797 3341 1997 
z
" transform="scale(0.015625)"/>
       <path id="DejaVuSans-69" d="M 603 3500 
L 1178 3500 
L 1178 0 
L 603 0 
L 603 3500 
z
M 603 4863 
L 1178 4863 
L 1178 4134 
L 603 4134 
L 603 4863 
z
" transform="scale(0.015625)"/>
       <path id="DejaVuSans-6f" d="M 1959 3097 
Q 1497 3097 1228 2736 
Q 959 2375 959 1747 
Q 959 1119 1226 758 
Q 1494 397 1959 397 
Q 2419 397 2687 759 
Q 2956 1122 2956 1747 
Q 2956 2369 2687 2733 
Q 2419 3097 1959 3097 
z
M 1959 3584 
Q 2709 3584 3137 3096 
Q 3566 2609 3566 1747 
Q 3566 888 3137 398 
Q 2709 -91 1959 -91 
Q 1206 -91 779 398 
Q 353 888 353 1747 
Q 353 2609 779 3096 
Q 1206 3584 1959 3584 
z
" transform="scale(0.015625)"/>
       <path id="DejaVuSans-6e" d="M 3513 2113 
L 3513 0 
L 2938 0 
L 2938 2094 
Q 2938 2591 2744 2837 
Q 2550 3084 2163 3084 
Q 1697 3084 1428 2787 
Q 1159 2491 1159 1978 
L 1159 0 
L 581 0 
L 581 3500 
L 1159 3500 
L 1159 2956 
Q 1366 3272 1645 3428 
Q 1925 3584 2291 3584 
Q 2894 3584 3203 3211 
Q 3513 2838 3513 2113 
z
" transform="scale(0.015625)"/>
       <path id="DejaVuSans-20" transform="scale(0.015625)"/>
       <path id="DejaVuSans-28" d="M 1984 4856 
Q 1566 4138 1362 3434 
Q 1159 2731 1159 2009 
Q 1159 1288 1364 580 
Q 1569 -128 1984 -844 
L 1484 -844 
Q 1016 -109 783 600 
Q 550 1309 550 2009 
Q 550 2706 781 3412 
Q 1013 4119 1484 4856 
L 1984 4856 
z
" transform="scale(0.015625)"/>
       <path id="DejaVuSans-62" d="M 3116 1747 
Q 3116 2381 2855 2742 
Q 2594 3103 2138 3103 
Q 1681 3103 1420 2742 
Q 1159 2381 1159 1747 
Q 1159 1113 1420 752 
Q 1681 391 2138 391 
Q 2594 391 2855 752 
Q 3116 1113 3116 1747 
z
M 1159 2969 
Q 1341 3281 1617 3432 
Q 1894 3584 2278 3584 
Q 2916 3584 3314 3078 
Q 3713 2572 3713 1747 
Q 3713 922 3314 415 
Q 2916 -91 2278 -91 
Q 1894 -91 1617 61 
Q 1341 213 1159 525 
L 1159 0 
L 581 0 
L 581 4863 
L 1159 4863 
L 1159 2969 
z
" transform="scale(0.015625)"/>
       <path id="DejaVuSans-63" d="M 3122 3366 
L 3122 2828 
Q 2878 2963 2633 3030 
Q 2388 3097 2138 3097 
Q 1578 3097 1268 2742 
Q 959 2388 959 1747 
Q 959 1106 1268 751 
Q 1578 397 2138 397 
Q 2388 397 2633 464 
Q 2878 531 3122 666 
L 3122 134 
Q 2881 22 2623 -34 
Q 2366 -91 2075 -91 
Q 1284 -91 818 406 
Q 353 903 353 1747 
Q 353 2603 823 3093 
Q 1294 3584 2113 3584 
Q 2378 3584 2631 3529 
Q 2884 3475 3122 3366 
z
" transform="scale(0.015625)"/>
       <path id="DejaVuSans-68" d="M 3513 2113 
L 3513 0 
L 2938 0 
L 2938 2094 
Q 2938 2591 2744 2837 
Q 2550 3084 2163 3084 
Q 1697 3084 1428 2787 
Q 1159 2491 1159 1978 
L 1159 0 
L 581 0 
L 581 4863 
L 1159 4863 
L 1159 2956 
Q 1366 3272 1645 3428 
Q 1925 3584 2291 3584 
Q 2894 3584 3203 3211 
Q 3513 2838 3513 2113 
z
" transform="scale(0.015625)"/>
       <path id="DejaVuSans-64" d="M 2906 2969 
L 2906 4863 
L 3481 4863 
L 3481 0 
L 2906 0 
L 2906 525 
Q 2725 213 2448 61 
Q 2172 -91 1784 -91 
Q 1150 -91 751 415 
Q 353 922 353 1747 
Q 353 2572 751 3078 
Q 1150 3584 1784 3584 
Q 2172 3584 2448 3432 
Q 2725 3281 2906 2969 
z
M 947 1747 
Q 947 1113 1208 752 
Q 1469 391 1925 391 
Q 2381 391 2643 752 
Q 2906 1113 2906 1747 
Q 2906 2381 2643 2742 
Q 2381 3103 1925 3103 
Q 1469 3103 1208 2742 
Q 947 2381 947 1747 
z
" transform="scale(0.015625)"/>
       <path id="DejaVuSans-78" d="M 3513 3500 
L 2247 1797 
L 3578 0 
L 2900 0 
L 1881 1375 
L 863 0 
L 184 0 
L 1544 1831 
L 300 3500 
L 978 3500 
L 1906 2253 
L 2834 3500 
L 3513 3500 
z
" transform="scale(0.015625)"/>
       <path id="DejaVuSans-29" d="M 513 4856 
L 1013 4856 
Q 1481 4119 1714 3412 
Q 1947 2706 1947 2009 
Q 1947 1309 1714 600 
Q 1481 -109 1013 -844 
L 513 -844 
Q 928 -128 1133 580 
Q 1338 1288 1338 2009 
Q 1338 2731 1133 3434 
Q 928 4138 513 4856 
z
" transform="scale(0.015625)"/>
      </defs>
      <use xlink:href="#DejaVuSans-49"/>
      <use xlink:href="#DejaVuSans-74" transform="translate(29.492188 0)"/>
      <use xlink:href="#DejaVuSans-65" transform="translate(68.701172 0)"/>
      <use xlink:href="#DejaVuSans-72" transform="translate(130.224609 0)"/>
      <use xlink:href="#DejaVuSans-61" transform="translate(171.337891 0)"/>
      <use xlink:href="#DejaVuSans-74" transform="translate(232.617188 0)"/>
      <use xlink:href="#DejaVuSans-69" transform="translate(271.826172 0)"/>
      <use xlink:href="#DejaVuSans-6f" transform="translate(299.609375 0)"/>
      <use xlink:href="#DejaVuSans-6e" transform="translate(360.791016 0)"/>
      <use xlink:href="#DejaVuSans-20" transform="translate(424.169922 0)"/>
      <use xlink:href="#DejaVuSans-28" transform="translate(455.957031 0)"/>
      <use xlink:href="#DejaVuSans-62" transform="translate(494.970703 0)"/>
      <use xlink:href="#DejaVuSans-61" transform="translate(558.447266 0)"/>
      <use xlink:href="#DejaVuSans-74" transform="translate(619.726562 0)"/>
      <use xlink:href="#DejaVuSans-63" transform="translate(658.935547 0)"/>
      <use xlink:href="#DejaVuSans-68" transform="translate(713.916016 0)"/>
      <use xlink:href="#DejaVuSans-20" transform="translate(777.294922 0)"/>
      <use xlink:href="#DejaVuSans-69" transform="translate(809.082031 0)"/>
      <use xlink:href="#DejaVuSans-6e" transform="translate(836.865234 0)"/>
      <use xlink:href="#DejaVuSans-64" transform="translate(900.244141 0)"/>
      <use xlink:href="#DejaVuSans-65" transform="translate(963.720703 0)"/>
      <use xlink:href="#DejaVuSans-78" transform="translate(1023.494141 0)"/>
      <use xlink:href="#DejaVuSans-29" transform="translate(1082.673828 0)"/>
     </g>
    </g>
   </g>
   <g id="matplotlib.axis_2">
    <g id="ytick_1">
     <g id="line2d_13">
      <path d="M 50.833125 501.927932 
L 666.461125 501.927932 
" clip-path="url(#p2ad2269d00)" style="fill: none; stroke: #b0b0b0; stroke-opacity: 0.3; stroke-width: 0.8; stroke-linecap: square"/>
     </g>
     <g id="line2d_14">
      <defs>
       <path id="m258944466f" d="M 0 0 
L -3.5 0 
" style="stroke: #000000; stroke-width: 0.8"/>
      </defs>
      <g>
       <use xlink:href="#m258944466f" x="50.833125" y="501.927932" style="stroke: #000000; stroke-width: 0.8"/>
      </g>
     </g>
     <g id="text_8">
      <!-- 0.0 -->
      <g transform="translate(24.749375 506.486994) scale(0.12 -0.12)">
       <defs>
        <path id="DejaVuSans-2e" d="M 684 794 
L 1344 794 
L 1344 0 
L 684 0 
L 684 794 
z
" transform="scale(0.015625)"/>
       </defs>
       <use xlink:href="#DejaVuSans-30"/>
       <use xlink:href="#DejaVuSans-2e" transform="translate(63.623047 0)"/>
       <use xlink:href="#DejaVuSans-30" transform="translate(95.410156 0)"/>
      </g>
     </g>
    </g>
    <g id="ytick_2">
     <g id="line2d_15">
      <path d="M 50.833125 398.258053 
L 666.461125 398.258053 
" clip-path="url(#p2ad2269d00)" style="fill: none; stroke: #b0b0b0; stroke-opacity: 0.3; stroke-width: 0.8; stroke-linecap: square"/>
     </g>
     <g id="line2d_16">
      <g>
       <use xlink:href="#m258944466f" x="50.833125" y="398.258053" style="stroke: #000000; stroke-width: 0.8"/>
      </g>
     </g>
     <g id="text_9">
      <!-- 0.5 -->
      <g transform="translate(24.749375 402.817115) scale(0.12 -0.12)">
       <defs>
        <path id="DejaVuSans-35" d="M 691 4666 
L 3169 4666 
L 3169 4134 
L 1269 4134 
L 1269 2991 
Q 1406 3038 1543 3061 
Q 1681 3084 1819 3084 
Q 2600 3084 3056 2656 
Q 3513 2228 3513 1497 
Q 3513 744 3044 326 
Q 2575 -91 1722 -91 
Q 1428 -91 1123 -41 
Q 819 9 494 109 
L 494 744 
Q 775 591 1075 516 
Q 1375 441 1709 441 
Q 2250 441 2565 725 
Q 2881 1009 2881 1497 
Q 2881 1984 2565 2268 
Q 2250 2553 1709 2553 
Q 1456 2553 1204 2497 
Q 953 2441 691 2322 
L 691 4666 
z
" transform="scale(0.015625)"/>
       </defs>
       <use xlink:href="#DejaVuSans-30"/>
       <use xlink:href="#DejaVuSans-2e" transform="translate(63.623047 0)"/>
       <use xlink:href="#DejaVuSans-35" transform="translate(95.410156 0)"/>
      </g>
     </g>
    </g>
    <g id="ytick_3">
     <g id="line2d_17">
      <path d="M 50.833125 294.588174 
L 666.461125 294.588174 
" clip-path="url(#p2ad2269d00)" style="fill: none; stroke: #b0b0b0; stroke-opacity: 0.3; stroke-width: 0.8; stroke-linecap: square"/>
     </g>
     <g id="line2d_18">
      <g>
       <use xlink:href="#m258944466f" x="50.833125" y="294.588174" style="stroke: #000000; stroke-width: 0.8"/>
      </g>
     </g>
     <g id="text_10">
      <!-- 1.0 -->
      <g transform="translate(24.749375 299.147237) scale(0.12 -0.12)">
       <use xlink:href="#DejaVuSans-31"/>
       <use xlink:href="#DejaVuSans-2e" transform="translate(63.623047 0)"/>
       <use xlink:href="#DejaVuSans-30" transform="translate(95.410156 0)"/>
      </g>
     </g>
    </g>
    <g id="ytick_4">
     <g id="line2d_19">
      <path d="M 50.833125 190.918296 
L 666.461125 190.918296 
" clip-path="url(#p2ad2269d00)" style="fill: none; stroke: #b0b0b0; stroke-opacity: 0.3; stroke-width: 0.8; stroke-linecap: square"/>
     </g>
     <g id="line2d_20">
      <g>
       <use xlink:href="#m258944466f" x="50.833125" y="190.918296" style="stroke: #000000; stroke-width: 0.8"/>
      </g>
     </g>
     <g id="text_11">
      <!-- 1.5 -->
      <g transform="translate(24.749375 195.477358) scale(0.12 -0.12)">
       <use xlink:href="#DejaVuSans-31"/>
       <use xlink:href="#DejaVuSans-2e" transform="translate(63.623047 0)"/>
       <use xlink:href="#DejaVuSans-35" transform="translate(95.410156 0)"/>
      </g>
     </g>
    </g>
    <g id="ytick_5">
     <g id="line2d_21">
      <path d="M 50.833125 87.248417 
L 666.461125 87.248417 
" clip-path="url(#p2ad2269d00)" style="fill: none; stroke: #b0b0b0; stroke-opacity: 0.3; stroke-width: 0.8; stroke-linecap: square"/>
     </g>
     <g id="line2d_22">
      <g>
       <use xlink:href="#m258944466f" x="50.833125" y="87.248417" style="stroke: #000000; stroke-width: 0.8"/>
      </g>
     </g>
     <g id="text_12">
      <!-- 2.0 -->
      <g transform="translate(24.749375 91.80748) scale(0.12 -0.12)">
       <use xlink:href="#DejaVuSans-32"/>
       <use xlink:href="#DejaVuSans-2e" transform="translate(63.623047 0)"/>
       <use xlink:href="#DejaVuSans-30" transform="translate(95.410156 0)"/>
      </g>
     </g>
    </g>
    <g id="text_13">
     <!-- Synton diversity ratio (unique syntons / batch size) -->
     <g transform="translate(17.837812 451.707969) rotate(-90) scale(0.14 -0.14)">
      <defs>
       <path id="DejaVuSans-53" d="M 3425 4513 
L 3425 3897 
Q 3066 4069 2747 4153 
Q 2428 4238 2131 4238 
Q 1616 4238 1336 4038 
Q 1056 3838 1056 3469 
Q 1056 3159 1242 3001 
Q 1428 2844 1947 2747 
L 2328 2669 
Q 3034 2534 3370 2195 
Q 3706 1856 3706 1288 
Q 3706 609 3251 259 
Q 2797 -91 1919 -91 
Q 1588 -91 1214 -16 
Q 841 59 441 206 
L 441 856 
Q 825 641 1194 531 
Q 1563 422 1919 422 
Q 2459 422 2753 634 
Q 3047 847 3047 1241 
Q 3047 1584 2836 1778 
Q 2625 1972 2144 2069 
L 1759 2144 
Q 1053 2284 737 2584 
Q 422 2884 422 3419 
Q 422 4038 858 4394 
Q 1294 4750 2059 4750 
Q 2388 4750 2728 4690 
Q 3069 4631 3425 4513 
z
" transform="scale(0.015625)"/>
       <path id="DejaVuSans-79" d="M 2059 -325 
Q 1816 -950 1584 -1140 
Q 1353 -1331 966 -1331 
L 506 -1331 
L 506 -850 
L 844 -850 
Q 1081 -850 1212 -737 
Q 1344 -625 1503 -206 
L 1606 56 
L 191 3500 
L 800 3500 
L 1894 763 
L 2988 3500 
L 3597 3500 
L 2059 -325 
z
" transform="scale(0.015625)"/>
       <path id="DejaVuSans-76" d="M 191 3500 
L 800 3500 
L 1894 563 
L 2988 3500 
L 3597 3500 
L 2284 0 
L 1503 0 
L 191 3500 
z
" transform="scale(0.015625)"/>
       <path id="DejaVuSans-73" d="M 2834 3397 
L 2834 2853 
Q 2591 2978 2328 3040 
Q 2066 3103 1784 3103 
Q 1356 3103 1142 2972 
Q 928 2841 928 2578 
Q 928 2378 1081 2264 
Q 1234 2150 1697 2047 
L 1894 2003 
Q 2506 1872 2764 1633 
Q 3022 1394 3022 966 
Q 3022 478 2636 193 
Q 2250 -91 1575 -91 
Q 1294 -91 989 -36 
Q 684 19 347 128 
L 347 722 
Q 666 556 975 473 
Q 1284 391 1588 391 
Q 1994 391 2212 530 
Q 2431 669 2431 922 
Q 2431 1156 2273 1281 
Q 2116 1406 1581 1522 
L 1381 1569 
Q 847 1681 609 1914 
Q 372 2147 372 2553 
Q 372 3047 722 3315 
Q 1072 3584 1716 3584 
Q 2034 3584 2315 3537 
Q 2597 3491 2834 3397 
z
" transform="scale(0.015625)"/>
       <path id="DejaVuSans-75" d="M 544 1381 
L 544 3500 
L 1119 3500 
L 1119 1403 
Q 1119 906 1312 657 
Q 1506 409 1894 409 
Q 2359 409 2629 706 
Q 2900 1003 2900 1516 
L 2900 3500 
L 3475 3500 
L 3475 0 
L 2900 0 
L 2900 538 
Q 2691 219 2414 64 
Q 2138 -91 1772 -91 
Q 1169 -91 856 284 
Q 544 659 544 1381 
z
M 1991 3584 
L 1991 3584 
z
" transform="scale(0.015625)"/>
       <path id="DejaVuSans-71" d="M 947 1747 
Q 947 1113 1208 752 
Q 1469 391 1925 391 
Q 2381 391 2643 752 
Q 2906 1113 2906 1747 
Q 2906 2381 2643 2742 
Q 2381 3103 1925 3103 
Q 1469 3103 1208 2742 
Q 947 2381 947 1747 
z
M 2906 525 
Q 2725 213 2448 61 
Q 2172 -91 1784 -91 
Q 1150 -91 751 415 
Q 353 922 353 1747 
Q 353 2572 751 3078 
Q 1150 3584 1784 3584 
Q 2172 3584 2448 3432 
Q 2725 3281 2906 2969 
L 2906 3500 
L 3481 3500 
L 3481 -1331 
L 2906 -1331 
L 2906 525 
z
" transform="scale(0.015625)"/>
       <path id="DejaVuSans-2f" d="M 1625 4666 
L 2156 4666 
L 531 -594 
L 0 -594 
L 1625 4666 
z
" transform="scale(0.015625)"/>
       <path id="DejaVuSans-7a" d="M 353 3500 
L 3084 3500 
L 3084 2975 
L 922 459 
L 3084 459 
L 3084 0 
L 275 0 
L 275 525 
L 2438 3041 
L 353 3041 
L 353 3500 
z
" transform="scale(0.015625)"/>
      </defs>
      <use xlink:href="#DejaVuSans-53"/>
      <use xlink:href="#DejaVuSans-79" transform="translate(63.476562 0)"/>
      <use xlink:href="#DejaVuSans-6e" transform="translate(122.65625 0)"/>
      <use xlink:href="#DejaVuSans-74" transform="translate(186.035156 0)"/>
      <use xlink:href="#DejaVuSans-6f" transform="translate(225.244141 0)"/>
      <use xlink:href="#DejaVuSans-6e" transform="translate(286.425781 0)"/>
      <use xlink:href="#DejaVuSans-20" transform="translate(349.804688 0)"/>
      <use xlink:href="#DejaVuSans-64" transform="translate(381.591797 0)"/>
      <use xlink:href="#DejaVuSans-69" transform="translate(445.068359 0)"/>
      <use xlink:href="#DejaVuSans-76" transform="translate(472.851562 0)"/>
      <use xlink:href="#DejaVuSans-65" transform="translate(532.03125 0)"/>
      <use xlink:href="#DejaVuSans-72" transform="translate(593.554688 0)"/>
      <use xlink:href="#DejaVuSans-73" transform="translate(634.667969 0)"/>
      <use xlink:href="#DejaVuSans-69" transform="translate(686.767578 0)"/>
      <use xlink:href="#DejaVuSans-74" transform="translate(714.550781 0)"/>
      <use xlink:href="#DejaVuSans-79" transform="translate(753.759766 0)"/>
      <use xlink:href="#DejaVuSans-20" transform="translate(812.939453 0)"/>
      <use xlink:href="#DejaVuSans-72" transform="translate(844.726562 0)"/>
      <use xlink:href="#DejaVuSans-61" transform="translate(885.839844 0)"/>
      <use xlink:href="#DejaVuSans-74" transform="translate(947.119141 0)"/>
      <use xlink:href="#DejaVuSans-69" transform="translate(986.328125 0)"/>
      <use xlink:href="#DejaVuSans-6f" transform="translate(1014.111328 0)"/>
      <use xlink:href="#DejaVuSans-20" transform="translate(1075.292969 0)"/>
      <use xlink:href="#DejaVuSans-28" transform="translate(1107.080078 0)"/>
      <use xlink:href="#DejaVuSans-75" transform="translate(1146.09375 0)"/>
      <use xlink:href="#DejaVuSans-6e" transform="translate(1209.472656 0)"/>
      <use xlink:href="#DejaVuSans-69" transform="translate(1272.851562 0)"/>
      <use xlink:href="#DejaVuSans-71" transform="translate(1300.634766 0)"/>
      <use xlink:href="#DejaVuSans-75" transform="translate(1364.111328 0)"/>
      <use xlink:href="#DejaVuSans-65" transform="translate(1427.490234 0)"/>
      <use xlink:href="#DejaVuSans-20" transform="translate(1489.013672 0)"/>
      <use xlink:href="#DejaVuSans-73" transform="translate(1520.800781 0)"/>
      <use xlink:href="#DejaVuSans-79" transform="translate(1572.900391 0)"/>
      <use xlink:href="#DejaVuSans-6e" transform="translate(1632.080078 0)"/>
      <use xlink:href="#DejaVuSans-74" transform="translate(1695.458984 0)"/>
      <use xlink:href="#DejaVuSans-6f" transform="translate(1734.667969 0)"/>
      <use xlink:href="#DejaVuSans-6e" transform="translate(1795.849609 0)"/>
      <use xlink:href="#DejaVuSans-73" transform="translate(1859.228516 0)"/>
      <use xlink:href="#DejaVuSans-20" transform="translate(1911.328125 0)"/>
      <use xlink:href="#DejaVuSans-2f" transform="translate(1943.115234 0)"/>
      <use xlink:href="#DejaVuSans-20" transform="translate(1976.806641 0)"/>
      <use xlink:href="#DejaVuSans-62" transform="translate(2008.59375 0)"/>
      <use xlink:href="#DejaVuSans-61" transform="translate(2072.070312 0)"/>
      <use xlink:href="#DejaVuSans-74" transform="translate(2133.349609 0)"/>
      <use xlink:href="#DejaVuSans-63" transform="translate(2172.558594 0)"/>
      <use xlink:href="#DejaVuSans-68" transform="translate(2227.539062 0)"/>
      <use xlink:href="#DejaVuSans-20" transform="translate(2290.917969 0)"/>
      <use xlink:href="#DejaVuSans-73" transform="translate(2322.705078 0)"/>
      <use xlink:href="#DejaVuSans-69" transform="translate(2374.804688 0)"/>
      <use xlink:href="#DejaVuSans-7a" transform="translate(2402.587891 0)"/>
      <use xlink:href="#DejaVuSans-65" transform="translate(2455.078125 0)"/>
      <use xlink:href="#DejaVuSans-29" transform="translate(2516.601562 0)"/>
     </g>
    </g>
   </g>
   <g id="line2d_23">
    <path d="M 78.816216 442.993361 
L 134.782398 87.248417 
L 190.74858 87.248417 
L 246.714761 87.248417 
L 302.680943 87.248417 
L 358.647125 87.248417 
L 414.613307 87.248417 
L 470.579489 87.248417 
L 526.54567 87.248417 
L 582.511852 87.248417 
L 638.478034 87.248417 
" clip-path="url(#p2ad2269d00)" style="fill: none; stroke: #aed6f1; stroke-width: 2; stroke-linecap: square"/>
    <defs>
     <path id="m2238f67320" d="M 0 3 
C 0.795609 3 1.55874 2.683901 2.12132 2.12132 
C 2.683901 1.55874 3 0.795609 3 0 
C 3 -0.795609 2.683901 -1.55874 2.12132 -2.12132 
C 1.55874 -2.683901 0.795609 -3 0 -3 
C -0.795609 -3 -1.55874 -2.683901 -2.12132 -2.12132 
C -2.683901 -1.55874 -3 -0.795609 -3 0 
C -3 0.795609 -2.683901 1.55874 -2.12132 2.12132 
C -1.55874 2.683901 -0.795609 3 0 3 
z
" style="stroke: #aed6f1"/>
    </defs>
    <g clip-path="url(#p2ad2269d00)">
     <use xlink:href="#m2238f67320" x="78.816216" y="442.993361" style="fill: #aed6f1; stroke: #aed6f1"/>
     <use xlink:href="#m2238f67320" x="134.782398" y="87.248417" style="fill: #aed6f1; stroke: #aed6f1"/>
     <use xlink:href="#m2238f67320" x="190.74858" y="87.248417" style="fill: #aed6f1; stroke: #aed6f1"/>
     <use xlink:href="#m2238f67320" x="246.714761" y="87.248417" style="fill: #aed6f1; stroke: #aed6f1"/>
     <use xlink:href="#m2238f67320" x="302.680943" y="87.248417" style="fill: #aed6f1; stroke: #aed6f1"/>
     <use xlink:href="#m2238f67320" x="358.647125" y="87.248417" style="fill: #aed6f1; stroke: #aed6f1"/>
     <use xlink:href="#m2238f67320" x="414.613307" y="87.248417" style="fill: #aed6f1; stroke: #aed6f1"/>
     <use xlink:href="#m2238f67320" x="470.579489" y="87.248417" style="fill: #aed6f1; stroke: #aed6f1"/>
     <use xlink:href="#m2238f67320" x="526.54567" y="87.248417" style="fill: #aed6f1; stroke: #aed6f1"/>
     <use xlink:href="#m2238f67320" x="582.511852" y="87.248417" style="fill: #aed6f1; stroke: #aed6f1"/>
     <use xlink:href="#m2238f67320" x="638.478034" y="87.248417" style="fill: #aed6f1; stroke: #aed6f1"/>
    </g>
   </g>
   <g id="line2d_24">
    <path d="M 78.816216 442.993361 
L 134.782398 274.890898 
L 190.74858 288.713548 
L 246.714761 256.575886 
L 302.680943 232.386247 
L 358.647125 220.982561 
L 414.613307 198.520754 
L 470.579489 225.129356 
L 526.54567 239.297573 
L 582.511852 202.321983 
L 638.478034 186.080368 
" clip-path="url(#p2ad2269d00)" style="fill: none; stroke: #40a7eb; stroke-width: 2; stroke-linecap: square"/>
    <defs>
     <path id="mb2c7fd498d" d="M 0 3 
C 0.795609 3 1.55874 2.683901 2.12132 2.12132 
C 2.683901 1.55874 3 0.795609 3 0 
C 3 -0.795609 2.683901 -1.55874 2.12132 -2.12132 
C 1.55874 -2.683901 0.795609 -3 0 -3 
C -0.795609 -3 -1.55874 -2.683901 -2.12132 -2.12132 
C -2.683901 -1.55874 -3 -0.795609 -3 0 
C -3 0.795609 -2.683901 1.55874 -2.12132 2.12132 
C -1.55874 2.683901 -0.795609 3 0 3 
z
" style="stroke: #40a7eb"/>
    </defs>
    <g clip-path="url(#p2ad2269d00)">
     <use xlink:href="#mb2c7fd498d" x="78.816216" y="442.993361" style="fill: #40a7eb; stroke: #40a7eb"/>
     <use xlink:href="#mb2c7fd498d" x="134.782398" y="274.890898" style="fill: #40a7eb; stroke: #40a7eb"/>
     <use xlink:href="#mb2c7fd498d" x="190.74858" y="288.713548" style="fill: #40a7eb; stroke: #40a7eb"/>
     <use xlink:href="#mb2c7fd498d" x="246.714761" y="256.575886" style="fill: #40a7eb; stroke: #40a7eb"/>
     <use xlink:href="#mb2c7fd498d" x="302.680943" y="232.386247" style="fill: #40a7eb; stroke: #40a7eb"/>
     <use xlink:href="#mb2c7fd498d" x="358.647125" y="220.982561" style="fill: #40a7eb; stroke: #40a7eb"/>
     <use xlink:href="#mb2c7fd498d" x="414.613307" y="198.520754" style="fill: #40a7eb; stroke: #40a7eb"/>
     <use xlink:href="#mb2c7fd498d" x="470.579489" y="225.129356" style="fill: #40a7eb; stroke: #40a7eb"/>
     <use xlink:href="#mb2c7fd498d" x="526.54567" y="239.297573" style="fill: #40a7eb; stroke: #40a7eb"/>
     <use xlink:href="#mb2c7fd498d" x="582.511852" y="202.321983" style="fill: #40a7eb; stroke: #40a7eb"/>
     <use xlink:href="#mb2c7fd498d" x="638.478034" y="186.080368" style="fill: #40a7eb; stroke: #40a7eb"/>
    </g>
   </g>
   <g id="line2d_25">
    <path d="M 78.816216 442.993361 
L 134.782398 422.724144 
L 190.74858 437.51438 
L 246.714761 460.25264 
L 302.680943 457.557224 
L 358.647125 461.565792 
L 414.613307 460.045301 
L 470.579489 450.300332 
L 526.54567 450.784125 
L 582.511852 445.877084 
L 638.478034 447.812255 
" clip-path="url(#p2ad2269d00)" style="fill: none; stroke: #0053d7; stroke-width: 2; stroke-linecap: square"/>
    <defs>
     <path id="mcabe795bbb" d="M 0 3 
C 0.795609 3 1.55874 2.683901 2.12132 2.12132 
C 2.683901 1.55874 3 0.795609 3 0 
C 3 -0.795609 2.683901 -1.55874 2.12132 -2.12132 
C 1.55874 -2.683901 0.795609 -3 0 -3 
C -0.795609 -3 -1.55874 -2.683901 -2.12132 -2.12132 
C -2.683901 -1.55874 -3 -0.795609 -3 0 
C -3 0.795609 -2.683901 1.55874 -2.12132 2.12132 
C -1.55874 2.683901 -0.795609 3 0 3 
z
" style="stroke: #0053d7"/>
    </defs>
    <g clip-path="url(#p2ad2269d00)">
     <use xlink:href="#mcabe795bbb" x="78.816216" y="442.993361" style="fill: #0053d7; stroke: #0053d7"/>
     <use xlink:href="#mcabe795bbb" x="134.782398" y="422.724144" style="fill: #0053d7; stroke: #0053d7"/>
     <use xlink:href="#mcabe795bbb" x="190.74858" y="437.51438" style="fill: #0053d7; stroke: #0053d7"/>
     <use xlink:href="#mcabe795bbb" x="246.714761" y="460.25264" style="fill: #0053d7; stroke: #0053d7"/>
     <use xlink:href="#mcabe795bbb" x="302.680943" y="457.557224" style="fill: #0053d7; stroke: #0053d7"/>
     <use xlink:href="#mcabe795bbb" x="358.647125" y="461.565792" style="fill: #0053d7; stroke: #0053d7"/>
     <use xlink:href="#mcabe795bbb" x="414.613307" y="460.045301" style="fill: #0053d7; stroke: #0053d7"/>
     <use xlink:href="#mcabe795bbb" x="470.579489" y="450.300332" style="fill: #0053d7; stroke: #0053d7"/>
     <use xlink:href="#mcabe795bbb" x="526.54567" y="450.784125" style="fill: #0053d7; stroke: #0053d7"/>
     <use xlink:href="#mcabe795bbb" x="582.511852" y="445.877084" style="fill: #0053d7; stroke: #0053d7"/>
     <use xlink:href="#mcabe795bbb" x="638.478034" y="447.812255" style="fill: #0053d7; stroke: #0053d7"/>
    </g>
   </g>
   <g id="line2d_26">
    <path d="M 78.816216 442.993361 
L 134.782398 493.385534 
L 190.74858 494.788533 
L 246.714761 496.426517 
L 302.680943 496.882664 
L 358.647125 494.401498 
L 414.613307 496.060216 
L 470.579489 495.486576 
L 526.54567 497.048536 
L 582.511852 495.534956 
L 638.478034 495.40364 
" clip-path="url(#p2ad2269d00)" style="fill: none; stroke: #5604ba; stroke-width: 2; stroke-linecap: square"/>
    <defs>
     <path id="m5106ce0a7a" d="M 0 3 
C 0.795609 3 1.55874 2.683901 2.12132 2.12132 
C 2.683901 1.55874 3 0.795609 3 0 
C 3 -0.795609 2.683901 -1.55874 2.12132 -2.12132 
C 1.55874 -2.683901 0.795609 -3 0 -3 
C -0.795609 -3 -1.55874 -2.683901 -2.12132 -2.12132 
C -2.683901 -1.55874 -3 -0.795609 -3 0 
C -3 0.795609 -2.683901 1.55874 -2.12132 2.12132 
C -1.55874 2.683901 -0.795609 3 0 3 
z
" style="stroke: #5604ba"/>
    </defs>
    <g clip-path="url(#p2ad2269d00)">
     <use xlink:href="#m5106ce0a7a" x="78.816216" y="442.993361" style="fill: #5604ba; stroke: #5604ba"/>
     <use xlink:href="#m5106ce0a7a" x="134.782398" y="493.385534" style="fill: #5604ba; stroke: #5604ba"/>
     <use xlink:href="#m5106ce0a7a" x="190.74858" y="494.788533" style="fill: #5604ba; stroke: #5604ba"/>
     <use xlink:href="#m5106ce0a7a" x="246.714761" y="496.426517" style="fill: #5604ba; stroke: #5604ba"/>
     <use xlink:href="#m5106ce0a7a" x="302.680943" y="496.882664" style="fill: #5604ba; stroke: #5604ba"/>
     <use xlink:href="#m5106ce0a7a" x="358.647125" y="494.401498" style="fill: #5604ba; stroke: #5604ba"/>
     <use xlink:href="#m5106ce0a7a" x="414.613307" y="496.060216" style="fill: #5604ba; stroke: #5604ba"/>
     <use xlink:href="#m5106ce0a7a" x="470.579489" y="495.486576" style="fill: #5604ba; stroke: #5604ba"/>
     <use xlink:href="#m5106ce0a7a" x="526.54567" y="497.048536" style="fill: #5604ba; stroke: #5604ba"/>
     <use xlink:href="#m5106ce0a7a" x="582.511852" y="495.534956" style="fill: #5604ba; stroke: #5604ba"/>
     <use xlink:href="#m5106ce0a7a" x="638.478034" y="495.40364" style="fill: #5604ba; stroke: #5604ba"/>
    </g>
   </g>
   <g id="patch_3">
    <path d="M 50.833125 520.2775 
L 50.833125 25.3575 
" style="fill: none; stroke: #000000; stroke-width: 0.8; stroke-linejoin: miter; stroke-linecap: square"/>
   </g>
   <g id="patch_4">
    <path d="M 666.461125 520.2775 
L 666.461125 25.3575 
" style="fill: none; stroke: #000000; stroke-width: 0.8; stroke-linejoin: miter; stroke-linecap: square"/>
   </g>
   <g id="patch_5">
    <path d="M 50.833125 520.2775 
L 666.461125 520.2775 
" style="fill: none; stroke: #000000; stroke-width: 0.8; stroke-linejoin: miter; stroke-linecap: square"/>
   </g>
   <g id="patch_6">
    <path d="M 50.833125 25.3575 
L 666.461125 25.3575 
" style="fill: none; stroke: #000000; stroke-width: 0.8; stroke-linejoin: miter; stroke-linecap: square"/>
   </g>
   <g id="text_14">
    <!-- Per-Batch Synton Diversity Ratio vs. Batch Size: maximize -->
    <g transform="translate(95.663375 19.3575) scale(0.16 -0.16)">
     <defs>
      <path id="DejaVuSans-Bold-50" d="M 588 4666 
L 2584 4666 
Q 3475 4666 3951 4270 
Q 4428 3875 4428 3144 
Q 4428 2409 3951 2014 
Q 3475 1619 2584 1619 
L 1791 1619 
L 1791 0 
L 588 0 
L 588 4666 
z
M 1791 3794 
L 1791 2491 
L 2456 2491 
Q 2806 2491 2997 2661 
Q 3188 2831 3188 3144 
Q 3188 3456 2997 3625 
Q 2806 3794 2456 3794 
L 1791 3794 
z
" transform="scale(0.015625)"/>
      <path id="DejaVuSans-Bold-65" d="M 4031 1759 
L 4031 1441 
L 1416 1441 
Q 1456 1047 1700 850 
Q 1944 653 2381 653 
Q 2734 653 3104 758 
Q 3475 863 3866 1075 
L 3866 213 
Q 3469 63 3072 -14 
Q 2675 -91 2278 -91 
Q 1328 -91 801 392 
Q 275 875 275 1747 
Q 275 2603 792 3093 
Q 1309 3584 2216 3584 
Q 3041 3584 3536 3087 
Q 4031 2591 4031 1759 
z
M 2881 2131 
Q 2881 2450 2695 2645 
Q 2509 2841 2209 2841 
Q 1884 2841 1681 2658 
Q 1478 2475 1428 2131 
L 2881 2131 
z
" transform="scale(0.015625)"/>
      <path id="DejaVuSans-Bold-72" d="M 3138 2547 
Q 2991 2616 2845 2648 
Q 2700 2681 2553 2681 
Q 2122 2681 1889 2404 
Q 1656 2128 1656 1613 
L 1656 0 
L 538 0 
L 538 3500 
L 1656 3500 
L 1656 2925 
Q 1872 3269 2151 3426 
Q 2431 3584 2822 3584 
Q 2878 3584 2943 3579 
Q 3009 3575 3134 3559 
L 3138 2547 
z
" transform="scale(0.015625)"/>
      <path id="DejaVuSans-Bold-2d" d="M 347 2297 
L 2309 2297 
L 2309 1388 
L 347 1388 
L 347 2297 
z
" transform="scale(0.015625)"/>
      <path id="DejaVuSans-Bold-42" d="M 2456 2859 
Q 2741 2859 2887 2984 
Q 3034 3109 3034 3353 
Q 3034 3594 2887 3720 
Q 2741 3847 2456 3847 
L 1791 3847 
L 1791 2859 
L 2456 2859 
z
M 2497 819 
Q 2859 819 3042 972 
Q 3225 1125 3225 1434 
Q 3225 1738 3044 1889 
Q 2863 2041 2497 2041 
L 1791 2041 
L 1791 819 
L 2497 819 
z
M 3616 2497 
Q 4003 2384 4215 2081 
Q 4428 1778 4428 1338 
Q 4428 663 3972 331 
Q 3516 0 2584 0 
L 588 0 
L 588 4666 
L 2394 4666 
Q 3366 4666 3802 4372 
Q 4238 4078 4238 3431 
Q 4238 3091 4078 2852 
Q 3919 2613 3616 2497 
z
" transform="scale(0.015625)"/>
      <path id="DejaVuSans-Bold-61" d="M 2106 1575 
Q 1756 1575 1579 1456 
Q 1403 1338 1403 1106 
Q 1403 894 1545 773 
Q 1688 653 1941 653 
Q 2256 653 2472 879 
Q 2688 1106 2688 1447 
L 2688 1575 
L 2106 1575 
z
M 3816 1997 
L 3816 0 
L 2688 0 
L 2688 519 
Q 2463 200 2181 54 
Q 1900 -91 1497 -91 
Q 953 -91 614 226 
Q 275 544 275 1050 
Q 275 1666 698 1953 
Q 1122 2241 2028 2241 
L 2688 2241 
L 2688 2328 
Q 2688 2594 2478 2717 
Q 2269 2841 1825 2841 
Q 1466 2841 1156 2769 
Q 847 2697 581 2553 
L 581 3406 
Q 941 3494 1303 3539 
Q 1666 3584 2028 3584 
Q 2975 3584 3395 3211 
Q 3816 2838 3816 1997 
z
" transform="scale(0.015625)"/>
      <path id="DejaVuSans-Bold-74" d="M 1759 4494 
L 1759 3500 
L 2913 3500 
L 2913 2700 
L 1759 2700 
L 1759 1216 
Q 1759 972 1856 886 
Q 1953 800 2241 800 
L 2816 800 
L 2816 0 
L 1856 0 
Q 1194 0 917 276 
Q 641 553 641 1216 
L 641 2700 
L 84 2700 
L 84 3500 
L 641 3500 
L 641 4494 
L 1759 4494 
z
" transform="scale(0.015625)"/>
      <path id="DejaVuSans-Bold-63" d="M 3366 3391 
L 3366 2478 
Q 3138 2634 2908 2709 
Q 2678 2784 2431 2784 
Q 1963 2784 1702 2511 
Q 1441 2238 1441 1747 
Q 1441 1256 1702 982 
Q 1963 709 2431 709 
Q 2694 709 2930 787 
Q 3166 866 3366 1019 
L 3366 103 
Q 3103 6 2833 -42 
Q 2563 -91 2291 -91 
Q 1344 -91 809 395 
Q 275 881 275 1747 
Q 275 2613 809 3098 
Q 1344 3584 2291 3584 
Q 2566 3584 2833 3536 
Q 3100 3488 3366 3391 
z
" transform="scale(0.015625)"/>
      <path id="DejaVuSans-Bold-68" d="M 4056 2131 
L 4056 0 
L 2931 0 
L 2931 347 
L 2931 1625 
Q 2931 2084 2911 2256 
Q 2891 2428 2841 2509 
Q 2775 2619 2662 2680 
Q 2550 2741 2406 2741 
Q 2056 2741 1856 2470 
Q 1656 2200 1656 1722 
L 1656 0 
L 538 0 
L 538 4863 
L 1656 4863 
L 1656 2988 
Q 1909 3294 2193 3439 
Q 2478 3584 2822 3584 
Q 3428 3584 3742 3212 
Q 4056 2841 4056 2131 
z
" transform="scale(0.015625)"/>
      <path id="DejaVuSans-Bold-20" transform="scale(0.015625)"/>
      <path id="DejaVuSans-Bold-53" d="M 3834 4519 
L 3834 3531 
Q 3450 3703 3084 3790 
Q 2719 3878 2394 3878 
Q 1963 3878 1756 3759 
Q 1550 3641 1550 3391 
Q 1550 3203 1689 3098 
Q 1828 2994 2194 2919 
L 2706 2816 
Q 3484 2659 3812 2340 
Q 4141 2022 4141 1434 
Q 4141 663 3683 286 
Q 3225 -91 2284 -91 
Q 1841 -91 1394 -6 
Q 947 78 500 244 
L 500 1259 
Q 947 1022 1364 901 
Q 1781 781 2169 781 
Q 2563 781 2772 912 
Q 2981 1044 2981 1288 
Q 2981 1506 2839 1625 
Q 2697 1744 2272 1838 
L 1806 1941 
Q 1106 2091 782 2419 
Q 459 2747 459 3303 
Q 459 4000 909 4375 
Q 1359 4750 2203 4750 
Q 2588 4750 2994 4692 
Q 3400 4634 3834 4519 
z
" transform="scale(0.015625)"/>
      <path id="DejaVuSans-Bold-79" d="M 78 3500 
L 1197 3500 
L 2138 1125 
L 2938 3500 
L 4056 3500 
L 2584 -331 
Q 2363 -916 2067 -1148 
Q 1772 -1381 1288 -1381 
L 641 -1381 
L 641 -647 
L 991 -647 
Q 1275 -647 1404 -556 
Q 1534 -466 1606 -231 
L 1638 -134 
L 78 3500 
z
" transform="scale(0.015625)"/>
      <path id="DejaVuSans-Bold-6e" d="M 4056 2131 
L 4056 0 
L 2931 0 
L 2931 347 
L 2931 1631 
Q 2931 2084 2911 2256 
Q 2891 2428 2841 2509 
Q 2775 2619 2662 2680 
Q 2550 2741 2406 2741 
Q 2056 2741 1856 2470 
Q 1656 2200 1656 1722 
L 1656 0 
L 538 0 
L 538 3500 
L 1656 3500 
L 1656 2988 
Q 1909 3294 2193 3439 
Q 2478 3584 2822 3584 
Q 3428 3584 3742 3212 
Q 4056 2841 4056 2131 
z
" transform="scale(0.015625)"/>
      <path id="DejaVuSans-Bold-6f" d="M 2203 2784 
Q 1831 2784 1636 2517 
Q 1441 2250 1441 1747 
Q 1441 1244 1636 976 
Q 1831 709 2203 709 
Q 2569 709 2762 976 
Q 2956 1244 2956 1747 
Q 2956 2250 2762 2517 
Q 2569 2784 2203 2784 
z
M 2203 3584 
Q 3106 3584 3614 3096 
Q 4122 2609 4122 1747 
Q 4122 884 3614 396 
Q 3106 -91 2203 -91 
Q 1297 -91 786 396 
Q 275 884 275 1747 
Q 275 2609 786 3096 
Q 1297 3584 2203 3584 
z
" transform="scale(0.015625)"/>
      <path id="DejaVuSans-Bold-44" d="M 1791 3756 
L 1791 909 
L 2222 909 
Q 2959 909 3348 1275 
Q 3738 1641 3738 2338 
Q 3738 3031 3350 3393 
Q 2963 3756 2222 3756 
L 1791 3756 
z
M 588 4666 
L 1856 4666 
Q 2919 4666 3439 4514 
Q 3959 4363 4331 4000 
Q 4659 3684 4818 3271 
Q 4978 2859 4978 2338 
Q 4978 1809 4818 1395 
Q 4659 981 4331 666 
Q 3956 303 3431 151 
Q 2906 0 1856 0 
L 588 0 
L 588 4666 
z
" transform="scale(0.015625)"/>
      <path id="DejaVuSans-Bold-69" d="M 538 3500 
L 1656 3500 
L 1656 0 
L 538 0 
L 538 3500 
z
M 538 4863 
L 1656 4863 
L 1656 3950 
L 538 3950 
L 538 4863 
z
" transform="scale(0.015625)"/>
      <path id="DejaVuSans-Bold-76" d="M 97 3500 
L 1216 3500 
L 2088 1081 
L 2956 3500 
L 4078 3500 
L 2700 0 
L 1472 0 
L 97 3500 
z
" transform="scale(0.015625)"/>
      <path id="DejaVuSans-Bold-73" d="M 3272 3391 
L 3272 2541 
Q 2913 2691 2578 2766 
Q 2244 2841 1947 2841 
Q 1628 2841 1473 2761 
Q 1319 2681 1319 2516 
Q 1319 2381 1436 2309 
Q 1553 2238 1856 2203 
L 2053 2175 
Q 2913 2066 3209 1816 
Q 3506 1566 3506 1031 
Q 3506 472 3093 190 
Q 2681 -91 1863 -91 
Q 1516 -91 1145 -36 
Q 775 19 384 128 
L 384 978 
Q 719 816 1070 734 
Q 1422 653 1784 653 
Q 2113 653 2278 743 
Q 2444 834 2444 1013 
Q 2444 1163 2330 1236 
Q 2216 1309 1875 1350 
L 1678 1375 
Q 931 1469 631 1722 
Q 331 1975 331 2491 
Q 331 3047 712 3315 
Q 1094 3584 1881 3584 
Q 2191 3584 2531 3537 
Q 2872 3491 3272 3391 
z
" transform="scale(0.015625)"/>
      <path id="DejaVuSans-Bold-52" d="M 2297 2597 
Q 2675 2597 2839 2737 
Q 3003 2878 3003 3200 
Q 3003 3519 2839 3656 
Q 2675 3794 2297 3794 
L 1791 3794 
L 1791 2597 
L 2297 2597 
z
M 1791 1766 
L 1791 0 
L 588 0 
L 588 4666 
L 2425 4666 
Q 3347 4666 3776 4356 
Q 4206 4047 4206 3378 
Q 4206 2916 3982 2619 
Q 3759 2322 3309 2181 
Q 3556 2125 3751 1926 
Q 3947 1728 4147 1325 
L 4800 0 
L 3519 0 
L 2950 1159 
Q 2778 1509 2601 1637 
Q 2425 1766 2131 1766 
L 1791 1766 
z
" transform="scale(0.015625)"/>
      <path id="DejaVuSans-Bold-2e" d="M 653 1209 
L 1778 1209 
L 1778 0 
L 653 0 
L 653 1209 
z
" transform="scale(0.015625)"/>
      <path id="DejaVuSans-Bold-7a" d="M 366 3500 
L 3419 3500 
L 3419 2719 
L 1575 800 
L 3419 800 
L 3419 0 
L 288 0 
L 288 781 
L 2131 2700 
L 366 2700 
L 366 3500 
z
" transform="scale(0.015625)"/>
      <path id="DejaVuSans-Bold-3a" d="M 716 3500 
L 1844 3500 
L 1844 2291 
L 716 2291 
L 716 3500 
z
M 716 1209 
L 1844 1209 
L 1844 0 
L 716 0 
L 716 1209 
z
" transform="scale(0.015625)"/>
      <path id="DejaVuSans-Bold-6d" d="M 3781 2919 
Q 3994 3244 4286 3414 
Q 4578 3584 4928 3584 
Q 5531 3584 5847 3212 
Q 6163 2841 6163 2131 
L 6163 0 
L 5038 0 
L 5038 1825 
Q 5041 1866 5042 1909 
Q 5044 1953 5044 2034 
Q 5044 2406 4934 2573 
Q 4825 2741 4581 2741 
Q 4263 2741 4089 2478 
Q 3916 2216 3909 1719 
L 3909 0 
L 2784 0 
L 2784 1825 
Q 2784 2406 2684 2573 
Q 2584 2741 2328 2741 
Q 2006 2741 1831 2477 
Q 1656 2213 1656 1722 
L 1656 0 
L 531 0 
L 531 3500 
L 1656 3500 
L 1656 2988 
Q 1863 3284 2130 3434 
Q 2397 3584 2719 3584 
Q 3081 3584 3359 3409 
Q 3638 3234 3781 2919 
z
" transform="scale(0.015625)"/>
      <path id="DejaVuSans-Bold-78" d="M 1422 1791 
L 159 3500 
L 1344 3500 
L 2059 2463 
L 2784 3500 
L 3969 3500 
L 2706 1797 
L 4031 0 
L 2847 0 
L 2059 1106 
L 1281 0 
L 97 0 
L 1422 1791 
z
" transform="scale(0.015625)"/>
     </defs>
     <use xlink:href="#DejaVuSans-Bold-50"/>
     <use xlink:href="#DejaVuSans-Bold-65" transform="translate(73.291016 0)"/>
     <use xlink:href="#DejaVuSans-Bold-72" transform="translate(141.113281 0)"/>
     <use xlink:href="#DejaVuSans-Bold-2d" transform="translate(190.429688 0)"/>
     <use xlink:href="#DejaVuSans-Bold-42" transform="translate(231.933594 0)"/>
     <use xlink:href="#DejaVuSans-Bold-61" transform="translate(308.154297 0)"/>
     <use xlink:href="#DejaVuSans-Bold-74" transform="translate(375.634766 0)"/>
     <use xlink:href="#DejaVuSans-Bold-63" transform="translate(423.4375 0)"/>
     <use xlink:href="#DejaVuSans-Bold-68" transform="translate(482.714844 0)"/>
     <use xlink:href="#DejaVuSans-Bold-20" transform="translate(553.90625 0)"/>
     <use xlink:href="#DejaVuSans-Bold-53" transform="translate(588.720703 0)"/>
     <use xlink:href="#DejaVuSans-Bold-79" transform="translate(660.742188 0)"/>
     <use xlink:href="#DejaVuSans-Bold-6e" transform="translate(725.927734 0)"/>
     <use xlink:href="#DejaVuSans-Bold-74" transform="translate(797.119141 0)"/>
     <use xlink:href="#DejaVuSans-Bold-6f" transform="translate(844.921875 0)"/>
     <use xlink:href="#DejaVuSans-Bold-6e" transform="translate(913.623047 0)"/>
     <use xlink:href="#DejaVuSans-Bold-20" transform="translate(984.814453 0)"/>
     <use xlink:href="#DejaVuSans-Bold-44" transform="translate(1019.628906 0)"/>
     <use xlink:href="#DejaVuSans-Bold-69" transform="translate(1102.636719 0)"/>
     <use xlink:href="#DejaVuSans-Bold-76" transform="translate(1136.914062 0)"/>
     <use xlink:href="#DejaVuSans-Bold-65" transform="translate(1202.099609 0)"/>
     <use xlink:href="#DejaVuSans-Bold-72" transform="translate(1269.921875 0)"/>
     <use xlink:href="#DejaVuSans-Bold-73" transform="translate(1319.238281 0)"/>
     <use xlink:href="#DejaVuSans-Bold-69" transform="translate(1378.759766 0)"/>
     <use xlink:href="#DejaVuSans-Bold-74" transform="translate(1413.037109 0)"/>
     <use xlink:href="#DejaVuSans-Bold-79" transform="translate(1460.839844 0)"/>
     <use xlink:href="#DejaVuSans-Bold-20" transform="translate(1526.025391 0)"/>
     <use xlink:href="#DejaVuSans-Bold-52" transform="translate(1560.839844 0)"/>
     <use xlink:href="#DejaVuSans-Bold-61" transform="translate(1637.841797 0)"/>
     <use xlink:href="#DejaVuSans-Bold-74" transform="translate(1705.322266 0)"/>
     <use xlink:href="#DejaVuSans-Bold-69" transform="translate(1753.125 0)"/>
     <use xlink:href="#DejaVuSans-Bold-6f" transform="translate(1787.402344 0)"/>
     <use xlink:href="#DejaVuSans-Bold-20" transform="translate(1856.103516 0)"/>
     <use xlink:href="#DejaVuSans-Bold-76" transform="translate(1890.917969 0)"/>
     <use xlink:href="#DejaVuSans-Bold-73" transform="translate(1956.103516 0)"/>
     <use xlink:href="#DejaVuSans-Bold-2e" transform="translate(2015.625 0)"/>
     <use xlink:href="#DejaVuSans-Bold-20" transform="translate(2053.613281 0)"/>
     <use xlink:href="#DejaVuSans-Bold-42" transform="translate(2088.427734 0)"/>
     <use xlink:href="#DejaVuSans-Bold-61" transform="translate(2164.648438 0)"/>
     <use xlink:href="#DejaVuSans-Bold-74" transform="translate(2232.128906 0)"/>
     <use xlink:href="#DejaVuSans-Bold-63" transform="translate(2279.931641 0)"/>
     <use xlink:href="#DejaVuSans-Bold-68" transform="translate(2339.208984 0)"/>
     <use xlink:href="#DejaVuSans-Bold-20" transform="translate(2410.400391 0)"/>
     <use xlink:href="#DejaVuSans-Bold-53" transform="translate(2445.214844 0)"/>
     <use xlink:href="#DejaVuSans-Bold-69" transform="translate(2517.236328 0)"/>
     <use xlink:href="#DejaVuSans-Bold-7a" transform="translate(2551.513672 0)"/>
     <use xlink:href="#DejaVuSans-Bold-65" transform="translate(2609.716797 0)"/>
     <use xlink:href="#DejaVuSans-Bold-3a" transform="translate(2677.539062 0)"/>
     <use xlink:href="#DejaVuSans-Bold-20" transform="translate(2717.529297 0)"/>
     <use xlink:href="#DejaVuSans-Bold-6d" transform="translate(2752.34375 0)"/>
     <use xlink:href="#DejaVuSans-Bold-61" transform="translate(2856.542969 0)"/>
     <use xlink:href="#DejaVuSans-Bold-78" transform="translate(2924.023438 0)"/>
     <use xlink:href="#DejaVuSans-Bold-69" transform="translate(2988.525391 0)"/>
     <use xlink:href="#DejaVuSans-Bold-6d" transform="translate(3022.802734 0)"/>
     <use xlink:href="#DejaVuSans-Bold-69" transform="translate(3127.001953 0)"/>
     <use xlink:href="#DejaVuSans-Bold-7a" transform="translate(3161.279297 0)"/>
     <use xlink:href="#DejaVuSans-Bold-65" transform="translate(3219.482422 0)"/>
    </g>
   </g>
   <g id="legend_1">
    <g id="patch_7">
     <path d="M 687.173685 105.4125 
L 842.39181 105.4125 
Q 844.79181 105.4125 844.79181 103.0125 
L 844.79181 33.7575 
Q 844.79181 31.3575 842.39181 31.3575 
L 687.173685 31.3575 
Q 684.773685 31.3575 684.773685 33.7575 
L 684.773685 103.0125 
Q 684.773685 105.4125 687.173685 105.4125 
z
" style="fill: #ffffff; opacity: 0.8; stroke: #cccccc; stroke-linejoin: miter"/>
    </g>
    <g id="line2d_27">
     <path d="M 689.573685 41.075625 
L 701.573685 41.075625 
L 713.573685 41.075625 
" style="fill: none; stroke: #aed6f1; stroke-width: 2; stroke-linecap: square"/>
     <g>
      <use xlink:href="#m2238f67320" x="701.573685" y="41.075625" style="fill: #aed6f1; stroke: #aed6f1"/>
     </g>
    </g>
    <g id="text_15">
     <!-- batch size = 1 -->
     <g transform="translate(723.173685 45.275625) scale(0.12 -0.12)">
      <defs>
       <path id="DejaVuSans-3d" d="M 678 2906 
L 4684 2906 
L 4684 2381 
L 678 2381 
L 678 2906 
z
M 678 1631 
L 4684 1631 
L 4684 1100 
L 678 1100 
L 678 1631 
z
" transform="scale(0.015625)"/>
      </defs>
      <use xlink:href="#DejaVuSans-62"/>
      <use xlink:href="#DejaVuSans-61" transform="translate(63.476562 0)"/>
      <use xlink:href="#DejaVuSans-74" transform="translate(124.755859 0)"/>
      <use xlink:href="#DejaVuSans-63" transform="translate(163.964844 0)"/>
      <use xlink:href="#DejaVuSans-68" transform="translate(218.945312 0)"/>
      <use xlink:href="#DejaVuSans-20" transform="translate(282.324219 0)"/>
      <use xlink:href="#DejaVuSans-73" transform="translate(314.111328 0)"/>
      <use xlink:href="#DejaVuSans-69" transform="translate(366.210938 0)"/>
      <use xlink:href="#DejaVuSans-7a" transform="translate(393.994141 0)"/>
      <use xlink:href="#DejaVuSans-65" transform="translate(446.484375 0)"/>
      <use xlink:href="#DejaVuSans-20" transform="translate(508.007812 0)"/>
      <use xlink:href="#DejaVuSans-3d" transform="translate(539.794922 0)"/>
      <use xlink:href="#DejaVuSans-20" transform="translate(623.583984 0)"/>
      <use xlink:href="#DejaVuSans-31" transform="translate(655.371094 0)"/>
     </g>
    </g>
    <g id="line2d_28">
     <path d="M 689.573685 58.689375 
L 701.573685 58.689375 
L 713.573685 58.689375 
" style="fill: none; stroke: #40a7eb; stroke-width: 2; stroke-linecap: square"/>
     <g>
      <use xlink:href="#mb2c7fd498d" x="701.573685" y="58.689375" style="fill: #40a7eb; stroke: #40a7eb"/>
     </g>
    </g>
    <g id="text_16">
     <!-- batch size = 100 -->
     <g transform="translate(723.173685 62.889375) scale(0.12 -0.12)">
      <use xlink:href="#DejaVuSans-62"/>
      <use xlink:href="#DejaVuSans-61" transform="translate(63.476562 0)"/>
      <use xlink:href="#DejaVuSans-74" transform="translate(124.755859 0)"/>
      <use xlink:href="#DejaVuSans-63" transform="translate(163.964844 0)"/>
      <use xlink:href="#DejaVuSans-68" transform="translate(218.945312 0)"/>
      <use xlink:href="#DejaVuSans-20" transform="translate(282.324219 0)"/>
      <use xlink:href="#DejaVuSans-73" transform="translate(314.111328 0)"/>
      <use xlink:href="#DejaVuSans-69" transform="translate(366.210938 0)"/>
      <use xlink:href="#DejaVuSans-7a" transform="translate(393.994141 0)"/>
      <use xlink:href="#DejaVuSans-65" transform="translate(446.484375 0)"/>
      <use xlink:href="#DejaVuSans-20" transform="translate(508.007812 0)"/>
      <use xlink:href="#DejaVuSans-3d" transform="translate(539.794922 0)"/>
      <use xlink:href="#DejaVuSans-20" transform="translate(623.583984 0)"/>
      <use xlink:href="#DejaVuSans-31" transform="translate(655.371094 0)"/>
      <use xlink:href="#DejaVuSans-30" transform="translate(718.994141 0)"/>
      <use xlink:href="#DejaVuSans-30" transform="translate(782.617188 0)"/>
     </g>
    </g>
    <g id="line2d_29">
     <path d="M 689.573685 76.303125 
L 701.573685 76.303125 
L 713.573685 76.303125 
" style="fill: none; stroke: #0053d7; stroke-width: 2; stroke-linecap: square"/>
     <g>
      <use xlink:href="#mcabe795bbb" x="701.573685" y="76.303125" style="fill: #0053d7; stroke: #0053d7"/>
     </g>
    </g>
    <g id="text_17">
     <!-- batch size = 1000 -->
     <g transform="translate(723.173685 80.503125) scale(0.12 -0.12)">
      <use xlink:href="#DejaVuSans-62"/>
      <use xlink:href="#DejaVuSans-61" transform="translate(63.476562 0)"/>
      <use xlink:href="#DejaVuSans-74" transform="translate(124.755859 0)"/>
      <use xlink:href="#DejaVuSans-63" transform="translate(163.964844 0)"/>
      <use xlink:href="#DejaVuSans-68" transform="translate(218.945312 0)"/>
      <use xlink:href="#DejaVuSans-20" transform="translate(282.324219 0)"/>
      <use xlink:href="#DejaVuSans-73" transform="translate(314.111328 0)"/>
      <use xlink:href="#DejaVuSans-69" transform="translate(366.210938 0)"/>
      <use xlink:href="#DejaVuSans-7a" transform="translate(393.994141 0)"/>
      <use xlink:href="#DejaVuSans-65" transform="translate(446.484375 0)"/>
      <use xlink:href="#DejaVuSans-20" transform="translate(508.007812 0)"/>
      <use xlink:href="#DejaVuSans-3d" transform="translate(539.794922 0)"/>
      <use xlink:href="#DejaVuSans-20" transform="translate(623.583984 0)"/>
      <use xlink:href="#DejaVuSans-31" transform="translate(655.371094 0)"/>
      <use xlink:href="#DejaVuSans-30" transform="translate(718.994141 0)"/>
      <use xlink:href="#DejaVuSans-30" transform="translate(782.617188 0)"/>
      <use xlink:href="#DejaVuSans-30" transform="translate(846.240234 0)"/>
     </g>
    </g>
    <g id="line2d_30">
     <path d="M 689.573685 93.916875 
L 701.573685 93.916875 
L 713.573685 93.916875 
" style="fill: none; stroke: #5604ba; stroke-width: 2; stroke-linecap: square"/>
     <g>
      <use xlink:href="#m5106ce0a7a" x="701.573685" y="93.916875" style="fill: #5604ba; stroke: #5604ba"/>
     </g>
    </g>
    <g id="text_18">
     <!-- batch size = 10000 -->
     <g transform="translate(723.173685 98.116875) scale(0.12 -0.12)">
      <use xlink:href="#DejaVuSans-62"/>
      <use xlink:href="#DejaVuSans-61" transform="translate(63.476562 0)"/>
      <use xlink:href="#DejaVuSans-74" transform="translate(124.755859 0)"/>
      <use xlink:href="#DejaVuSans-63" transform="translate(163.964844 0)"/>
      <use xlink:href="#DejaVuSans-68" transform="translate(218.945312 0)"/>
      <use xlink:href="#DejaVuSans-20" transform="translate(282.324219 0)"/>
      <use xlink:href="#DejaVuSans-73" transform="translate(314.111328 0)"/>
      <use xlink:href="#DejaVuSans-69" transform="translate(366.210938 0)"/>
      <use xlink:href="#DejaVuSans-7a" transform="translate(393.994141 0)"/>
      <use xlink:href="#DejaVuSans-65" transform="translate(446.484375 0)"/>
      <use xlink:href="#DejaVuSans-20" transform="translate(508.007812 0)"/>
      <use xlink:href="#DejaVuSans-3d" transform="translate(539.794922 0)"/>
      <use xlink:href="#DejaVuSans-20" transform="translate(623.583984 0)"/>
      <use xlink:href="#DejaVuSans-31" transform="translate(655.371094 0)"/>
      <use xlink:href="#DejaVuSans-30" transform="translate(718.994141 0)"/>
      <use xlink:href="#DejaVuSans-30" transform="translate(782.617188 0)"/>
      <use xlink:href="#DejaVuSans-30" transform="translate(846.240234 0)"/>
      <use xlink:href="#DejaVuSans-30" transform="translate(909.863281 0)"/>
     </g>
    </g>
   </g>
  </g>
 </g>
 <defs>
  <clipPath id="p2ad2269d00">
   <rect x="50.833125" y="25.3575" width="615.628" height="494.92"/>
  </clipPath>
 </defs>
</svg>
